<svg xmlns="http://www.w3.org/2000/svg" viewBox="0 0 64 64">
  <!-- Background circle with gradient -->
  <defs>
    <linearGradient id="bgGrad" x1="0%" y1="0%" x2="100%" y2="100%">
      <stop offset="0%" style="stop-color:#1a1a2e"/>
      <stop offset="100%" style="stop-color:#0a0a14"/>
    </linearGradient>
    <linearGradient id="hatGrad" x1="0%" y1="0%" x2="100%" y2="100%">
      <stop offset="0%" style="stop-color:#4a148c"/>
      <stop offset="100%" style="stop-color:#7c43bd"/>
    </linearGradient>
    <linearGradient id="starGrad" x1="0%" y1="0%" x2="100%" y2="100%">
      <stop offset="0%" style="stop-color:#ffd93d"/>
      <stop offset="100%" style="stop-color:#ff9800"/>
    </linearGradient>
    <filter id="glow">
      <feGaussianBlur stdDeviation="1" result="coloredBlur"/>
      <feMerge>
        <feMergeNode in="coloredBlur"/>
        <feMergeNode in="SourceGraphic"/>
      </feMerge>
    </filter>
  </defs>
  
  <!-- Background -->
  <circle cx="32" cy="32" r="30" fill="url(#bgGrad)" stroke="#00f5ff" stroke-width="2"/>
  
  <!-- Wizard Hat -->
  <path d="M32 8 L48 52 L16 52 Z" fill="url(#hatGrad)" stroke="#bf5af2" stroke-width="1.5"/>
  
  <!-- Hat brim -->
  <ellipse cx="32" cy="52" rx="18" ry="5" fill="url(#hatGrad)" stroke="#bf5af2" stroke-width="1"/>
  
  <!-- Hat band -->
  <path d="M20 45 Q32 42 44 45" stroke="#ffd93d" stroke-width="2" fill="none"/>
  
  <!-- Main star on hat -->
  <polygon points="32,18 34,24 40,24 35,28 37,34 32,30 27,34 29,28 24,24 30,24" fill="url(#starGrad)" filter="url(#glow)"/>
  
  <!-- Small sparkles -->
  <circle cx="22" cy="20" r="1.5" fill="#00f5ff" filter="url(#glow)"/>
  <circle cx="42" cy="25" r="1" fill="#ff00ff" filter="url(#glow)"/>
  <circle cx="25" cy="35" r="1" fill="#ffd93d" filter="url(#glow)"/>
  <circle cx="40" cy="38" r="1.5" fill="#00f5ff" filter="url(#glow)"/>
</svg>